<svg width="477" height="322" viewBox="0 0 477 322" fill="none" xmlns="http://www.w3.org/2000/svg">
<g clip-path="url(#clip0_2319_25571)">
<rect width="477" height="322" fill="url(#paint0_linear_2319_25571)"/>
<path d="M130.975 135.645C119.457 141.569 113.596 154.866 117.768 167.115C122.373 180.634 137.434 187.704 151.387 182.952C153.316 182.295 156.196 180.823 157.867 179.812C157.253 180.314 155.544 181.412 154.884 181.859C150.592 184.761 145.536 186.326 140.355 186.355C135.174 186.383 130.101 184.875 125.777 182.021C121.453 179.167 118.073 175.094 116.063 170.318C114.054 165.543 113.506 160.279 114.488 155.192C115.47 150.105 117.939 145.423 121.582 141.739C124.249 139.043 127.457 136.97 130.975 135.645Z" fill="white" style="fill:white;fill-opacity:1;"/>
<path d="M138.395 137.585C142.323 136.532 146.459 136.754 150.281 138.225C153.142 139.633 155.752 141.837 157.955 144.302C150.498 137.585 138.9 137.544 131.379 145.31C123.468 153.477 122.861 166.697 129.855 175.331C127.816 173.378 126.147 171.001 124.961 168.328C123.213 164.391 122.59 159.991 123.169 155.685C123.748 151.38 125.504 147.362 128.215 144.141C130.925 140.919 134.468 138.638 138.395 137.585Z" fill="white" style="fill:white;fill-opacity:1;"/>
<path d="M142.519 144.508C135.985 146.404 131.319 152.871 131.61 160.328C131.916 168.191 136.469 173.907 142.791 175.235C141.305 175.262 139.77 174.646 138.327 174.217C135.798 172.983 135.003 172.172 133.093 169.832C131.184 167.491 129.991 164.617 129.664 161.574C129.338 158.53 129.893 155.454 131.26 152.733C132.627 150.012 134.745 147.77 137.345 146.289C138.959 145.37 140.713 144.77 142.519 144.508Z" fill="white" style="fill:white;fill-opacity:1;"/>
<path d="M143.014 168.621C142.827 168.621 142.675 168.469 142.675 168.282V153.716C142.675 153.529 142.827 153.377 143.014 153.377L144.712 153.377C144.899 153.377 145.051 153.529 145.051 153.716V168.282C145.051 168.469 144.899 168.621 144.712 168.621L143.014 168.621Z" fill="white" style="fill:white;fill-opacity:1;"/>
<path d="M151.925 168.621C151.738 168.621 151.587 168.469 151.587 168.282V153.716C151.587 153.529 151.738 153.377 151.925 153.377H153.354C153.457 153.377 153.554 153.424 153.619 153.505L163.147 165.441C163.295 165.626 163.163 165.899 162.927 165.899C162.771 165.899 162.645 165.773 162.645 165.617V153.716C162.645 153.529 162.797 153.377 162.984 153.377H164.6C164.787 153.377 164.938 153.529 164.938 153.716V168.282C164.938 168.469 164.787 168.621 164.6 168.621H163.171C163.068 168.621 162.971 168.574 162.906 168.493L153.378 156.557C153.23 156.373 153.362 156.099 153.598 156.099C153.754 156.099 153.88 156.226 153.88 156.381V162.586V168.282C153.88 168.469 153.728 168.621 153.541 168.621H151.925Z" fill="white" style="fill:white;fill-opacity:1;"/>
<path d="M174.495 168.621C174.308 168.621 174.156 168.469 174.156 168.282V155.611C174.156 155.424 174.005 155.272 173.818 155.272H169.652C169.465 155.272 169.313 155.12 169.313 154.933V153.716C169.313 153.529 169.465 153.377 169.652 153.377H180.658C180.845 153.377 180.997 153.529 180.997 153.716V154.933C180.997 155.12 180.845 155.272 180.658 155.272H176.493C176.306 155.272 176.154 155.424 176.154 155.611V168.282C176.154 168.469 176.002 168.621 175.815 168.621H174.495Z" fill="white" style="fill:white;fill-opacity:1;"/>
<path d="M188.058 160.293C188.058 160.106 188.21 159.954 188.397 159.954H194.984C195.171 159.954 195.323 160.106 195.323 160.293V161.466C195.323 161.653 195.171 161.805 194.984 161.805H188.397C188.21 161.805 188.058 161.653 188.058 161.466V160.293ZM188.24 166.387C188.24 166.575 188.392 166.726 188.579 166.726H196.134C196.321 166.726 196.473 166.878 196.473 167.065V168.282C196.473 168.469 196.321 168.621 196.134 168.621H186.561C186.374 168.621 186.222 168.469 186.222 168.282V153.716C186.222 153.529 186.374 153.377 186.561 153.377H195.852C196.039 153.377 196.19 153.529 196.19 153.716V154.933C196.19 155.12 196.039 155.272 195.852 155.272H188.579C188.392 155.272 188.24 155.424 188.24 155.611V166.387Z" fill="white" style="fill:white;fill-opacity:1;"/>
<path d="M209.124 168.795C208.035 168.795 207.032 168.606 206.118 168.229C205.203 167.837 204.409 167.292 203.736 166.596C203.064 165.884 202.539 165.057 202.162 164.113C201.786 163.169 201.597 162.131 201.597 160.999C201.597 159.867 201.786 158.829 202.162 157.885C202.539 156.941 203.064 156.121 203.736 155.424C204.423 154.713 205.223 154.169 206.138 153.791C207.053 153.399 208.062 153.203 209.165 153.203C210.281 153.203 211.304 153.399 212.232 153.791C213.069 154.145 213.792 154.658 214.399 155.331C214.513 155.457 214.507 155.648 214.392 155.772L213.587 156.64C213.454 156.784 213.228 156.784 213.086 156.65C212.578 156.17 212.031 155.812 211.445 155.577C210.772 155.286 210.039 155.141 209.245 155.141C208.438 155.141 207.685 155.286 206.985 155.577C206.299 155.867 205.701 156.274 205.189 156.796C204.692 157.319 204.301 157.943 204.019 158.669C203.75 159.38 203.615 160.157 203.615 160.999C203.615 161.827 203.75 162.603 204.019 163.329C204.301 164.041 204.692 164.665 205.189 165.202C205.701 165.725 206.299 166.131 206.985 166.421C207.671 166.712 208.418 166.857 209.225 166.857C209.979 166.857 210.698 166.734 211.384 166.487C211.969 166.268 212.517 165.933 213.026 165.481C213.185 165.341 213.433 165.362 213.554 165.536L214.472 166.857C213.772 167.496 212.952 167.982 212.01 168.316C211.082 168.635 210.12 168.795 209.124 168.795ZM212.824 166.616C212.658 166.592 212.535 166.449 212.535 166.281V161.251C212.535 161.064 212.686 160.912 212.873 160.912H214.133C214.32 160.912 214.472 161.064 214.472 161.251V166.857L212.824 166.616Z" fill="white" style="fill:white;fill-opacity:1;"/>
<path d="M221.701 168.621C221.514 168.621 221.362 168.469 221.362 168.282V153.716C221.362 153.529 221.514 153.377 221.701 153.377H226.871C228.109 153.377 229.165 153.588 230.039 154.009C230.914 154.43 231.586 155.04 232.057 155.838C232.528 156.637 232.764 157.587 232.764 158.691C232.764 159.794 232.528 160.745 232.057 161.543C231.586 162.327 230.914 162.93 230.039 163.351C229.165 163.772 228.109 163.982 226.871 163.982H223.101C222.859 163.982 222.732 163.696 222.895 163.516C223.066 163.327 223.38 163.448 223.38 163.704V168.282C223.38 168.469 223.228 168.621 223.041 168.621H221.701ZM230.99 168.621C230.875 168.621 230.768 168.563 230.706 168.467L227.554 163.613C227.408 163.388 227.57 163.09 227.838 163.09H229.191C229.305 163.09 229.411 163.147 229.474 163.242L232.661 168.096C232.809 168.321 232.647 168.621 232.378 168.621H230.99ZM223.38 162.418C223.38 162.685 223.048 162.808 222.875 162.604C222.716 162.418 222.848 162.131 223.093 162.131H226.811C228.102 162.131 229.077 161.834 229.737 161.239C230.409 160.629 230.746 159.78 230.746 158.691C230.746 157.602 230.409 156.76 229.737 156.165C229.077 155.569 228.102 155.272 226.811 155.272H223.091C222.845 155.272 222.711 154.985 222.868 154.797C223.042 154.589 223.38 154.712 223.38 154.982V162.418Z" fill="white" style="fill:white;fill-opacity:1;"/>
<path d="M245.427 168.795C244.351 168.795 243.349 168.599 242.421 168.207C241.506 167.815 240.712 167.271 240.039 166.574C239.367 165.862 238.842 165.035 238.465 164.091C238.089 163.148 237.9 162.117 237.9 160.999C237.9 159.881 238.089 158.85 238.465 157.907C238.842 156.963 239.367 156.143 240.039 155.446C240.712 154.735 241.506 154.183 242.421 153.791C243.335 153.399 244.338 153.203 245.427 153.203C246.504 153.203 247.492 153.399 248.394 153.791C249.308 154.169 250.102 154.713 250.775 155.424C251.461 156.121 251.986 156.941 252.349 157.885C252.725 158.829 252.914 159.867 252.914 160.999C252.914 162.131 252.725 163.169 252.349 164.113C251.986 165.057 251.461 165.884 250.775 166.596C250.102 167.292 249.308 167.837 248.394 168.229C247.492 168.606 246.504 168.795 245.427 168.795ZM245.427 166.857C246.208 166.857 246.927 166.712 247.586 166.421C248.259 166.131 248.838 165.725 249.322 165.202C249.82 164.665 250.203 164.041 250.472 163.329C250.755 162.618 250.896 161.841 250.896 160.999C250.896 160.157 250.755 159.38 250.472 158.669C250.203 157.958 249.82 157.341 249.322 156.818C248.838 156.281 248.259 155.867 247.586 155.577C246.927 155.286 246.208 155.141 245.427 155.141C244.634 155.141 243.9 155.286 243.228 155.577C242.569 155.867 241.99 156.281 241.492 156.818C240.995 157.341 240.604 157.958 240.322 158.669C240.053 159.38 239.918 160.157 239.918 160.999C239.918 161.841 240.053 162.618 240.322 163.329C240.604 164.041 240.995 164.665 241.492 165.202C241.99 165.725 242.569 166.131 243.228 166.421C243.9 166.712 244.634 166.857 245.427 166.857Z" fill="white" style="fill:white;fill-opacity:1;"/>
<path d="M162.667 176.115H166.398V176.715H164.865V179.722H164.2V176.715H162.667V176.115Z" fill="white" style="fill:white;fill-opacity:1;"/>
<path d="M170.852 176.115H174.081V176.715H171.518V177.582H173.827V178.176H171.518V179.115H174.179V179.722H170.852V176.115Z" fill="white" style="fill:white;fill-opacity:1;"/>
<path d="M182.377 176.937L181.861 177.237C181.561 176.828 181.133 176.623 180.576 176.623C180.172 176.623 179.848 176.741 179.604 176.976C179.365 177.211 179.245 177.526 179.245 177.922C179.245 178.304 179.367 178.617 179.611 178.861C179.859 179.1 180.181 179.22 180.576 179.22C181.12 179.22 181.548 179.013 181.861 178.6L182.383 178.907C181.987 179.511 181.39 179.813 180.589 179.813C180.007 179.813 179.526 179.642 179.148 179.298C178.774 178.954 178.587 178.496 178.587 177.922C178.587 177.348 178.776 176.889 179.154 176.545C179.533 176.202 180.011 176.03 180.589 176.03C181.398 176.03 181.994 176.332 182.377 176.937Z" fill="white" style="fill:white;fill-opacity:1;"/>
<path d="M186.886 176.115H187.551V177.556H189.867V176.115H190.526V179.722H189.867V178.15H187.551V179.722H186.886V176.115Z" fill="white" style="fill:white;fill-opacity:1;"/>
<path d="M195.138 176.115H195.803L198.197 178.796V176.115H198.856V179.722H198.184L195.79 177.028V179.722H195.138V176.115Z" fill="white" style="fill:white;fill-opacity:1;"/>
<path d="M204.426 176.963C204.174 177.197 204.047 177.517 204.047 177.922C204.047 178.326 204.174 178.648 204.426 178.887C204.682 179.122 205.006 179.239 205.398 179.239C205.789 179.239 206.113 179.122 206.37 178.887C206.626 178.648 206.755 178.326 206.755 177.922C206.755 177.517 206.626 177.197 206.37 176.963C206.113 176.723 205.789 176.604 205.398 176.604C205.006 176.604 204.682 176.723 204.426 176.963ZM206.833 176.558C207.22 176.906 207.413 177.361 207.413 177.922C207.413 178.483 207.22 178.939 206.833 179.291C206.446 179.639 205.967 179.813 205.398 179.813C204.828 179.813 204.35 179.639 203.963 179.291C203.576 178.939 203.382 178.483 203.382 177.922C203.382 177.361 203.576 176.906 203.963 176.558C204.35 176.206 204.828 176.03 205.398 176.03C205.967 176.03 206.446 176.206 206.833 176.558Z" fill="white" style="fill:white;fill-opacity:1;"/>
<path d="M211.948 176.115H212.614V179.122H215.21V179.722H211.948V176.115Z" fill="white" style="fill:white;fill-opacity:1;"/>
<path d="M220.491 176.963C220.239 177.197 220.113 177.517 220.113 177.922C220.113 178.326 220.239 178.648 220.491 178.887C220.747 179.122 221.071 179.239 221.463 179.239C221.854 179.239 222.178 179.122 222.435 178.887C222.691 178.648 222.82 178.326 222.82 177.922C222.82 177.517 222.691 177.197 222.435 176.963C222.178 176.723 221.854 176.604 221.463 176.604C221.071 176.604 220.747 176.723 220.491 176.963ZM222.898 176.558C223.285 176.906 223.479 177.361 223.479 177.922C223.479 178.483 223.285 178.939 222.898 179.291C222.511 179.639 222.033 179.813 221.463 179.813C220.893 179.813 220.415 179.639 220.028 179.291C219.641 178.939 219.447 178.483 219.447 177.922C219.447 177.361 219.641 176.906 220.028 176.558C220.415 176.206 220.893 176.03 221.463 176.03C222.033 176.03 222.511 176.206 222.898 176.558Z" fill="white" style="fill:white;fill-opacity:1;"/>
<path d="M230.205 177.674H231.797V179.722H231.373L231.275 179.389C230.91 179.672 230.464 179.813 229.938 179.813C229.351 179.813 228.868 179.642 228.49 179.298C228.116 178.954 227.929 178.496 227.929 177.922C227.929 177.348 228.118 176.889 228.496 176.545C228.875 176.202 229.355 176.03 229.938 176.03C230.721 176.03 231.312 176.319 231.712 176.897L231.19 177.197C231.038 177.002 230.862 176.86 230.662 176.773C230.466 176.682 230.218 176.636 229.918 176.636C229.514 176.636 229.19 176.752 228.946 176.982C228.707 177.213 228.588 177.526 228.588 177.922C228.588 178.309 228.709 178.62 228.953 178.854C229.201 179.089 229.523 179.207 229.918 179.207C230.445 179.207 230.858 179.065 231.158 178.783V178.254L230.205 178.215V177.674Z" fill="white" style="fill:white;fill-opacity:1;"/>
<path d="M236.425 176.115H237.09V179.722H236.425V176.115Z" fill="white" style="fill:white;fill-opacity:1;"/>
<path d="M241.696 176.115H244.925V176.715H242.361V177.582H244.671V178.176H242.361V179.115H245.023V179.722H241.696V176.115Z" fill="white" style="fill:white;fill-opacity:1;"/>
<path d="M252.96 176.526L252.64 177.015C252.231 176.75 251.751 176.617 251.198 176.617C250.529 176.617 250.194 176.778 250.194 177.1C250.194 177.226 250.241 177.317 250.337 177.374C250.433 177.426 250.574 177.463 250.761 177.485L251.883 177.615C252.683 177.715 253.083 178.065 253.083 178.665C253.083 179.048 252.918 179.335 252.588 179.526C252.262 179.718 251.816 179.813 251.25 179.813C250.542 179.813 249.933 179.631 249.424 179.265L249.737 178.75C250.215 179.072 250.752 179.233 251.348 179.233C251.683 179.233 251.948 179.187 252.144 179.096C252.344 179 252.444 178.861 252.444 178.678C252.444 178.422 252.257 178.274 251.883 178.235L250.696 178.104C250.318 178.061 250.031 177.961 249.835 177.804C249.639 177.648 249.541 177.415 249.541 177.106C249.541 176.754 249.696 176.486 250.004 176.304C250.318 176.121 250.716 176.03 251.198 176.03C251.903 176.03 252.49 176.195 252.96 176.526Z" fill="white" style="fill:white;fill-opacity:1;"/>
<rect x="269.804" y="149.085" width="0.322048" height="35.7473" fill="white" style="fill:white;fill-opacity:1;"/>
<path d="M283.368 158.857V154.528H283.98V158.319H286.391V154.528H287.004V158.857H283.368ZM287.096 159.84V158.696L287.245 158.857H286.391V158.319H287.671V159.84H287.096Z" fill="white" style="fill:white;fill-opacity:1;"/>
<path d="M290.04 158.857V154.528H290.652V157.867L293.212 154.528H293.781V158.857H293.175V155.524L290.609 158.857H290.04Z" fill="white" style="fill:white;fill-opacity:1;"/>
<path d="M298.791 158.566C298.264 158.566 297.812 158.494 297.437 158.35C297.062 158.201 296.775 157.987 296.578 157.707C296.38 157.426 296.281 157.086 296.281 156.686C296.281 156.287 296.38 155.946 296.578 155.666C296.775 155.386 297.062 155.172 297.437 155.023C297.812 154.875 298.264 154.801 298.791 154.801C298.799 154.801 298.814 154.801 298.834 154.801C298.859 154.801 298.882 154.801 298.902 154.801C298.927 154.801 298.942 154.801 298.946 154.801C299.473 154.801 299.923 154.875 300.294 155.023C300.669 155.172 300.955 155.386 301.153 155.666C301.351 155.946 301.45 156.287 301.45 156.686C301.45 157.082 301.351 157.422 301.153 157.707C300.959 157.987 300.677 158.201 300.306 158.35C299.939 158.494 299.494 158.566 298.971 158.566C298.962 158.566 298.944 158.566 298.915 158.566C298.89 158.566 298.865 158.566 298.841 158.566C298.816 158.566 298.799 158.566 298.791 158.566ZM298.859 158.084C298.867 158.084 298.878 158.084 298.89 158.084C298.902 158.084 298.909 158.084 298.909 158.084C299.329 158.08 299.684 158.026 299.972 157.923C300.261 157.816 300.479 157.659 300.628 157.453C300.78 157.243 300.856 156.985 300.856 156.68C300.856 156.379 300.78 156.126 300.628 155.92C300.475 155.714 300.255 155.557 299.966 155.45C299.682 155.343 299.333 155.289 298.921 155.289C298.917 155.289 298.907 155.289 298.89 155.289C298.878 155.289 298.867 155.289 298.859 155.289C298.435 155.289 298.074 155.343 297.777 155.45C297.484 155.553 297.262 155.707 297.109 155.914C296.957 156.12 296.881 156.377 296.881 156.686C296.881 156.996 296.959 157.253 297.116 157.459C297.272 157.665 297.497 157.822 297.789 157.929C298.086 158.032 298.443 158.084 298.859 158.084ZM298.581 159.018V154.368H299.156V159.018H298.581Z" fill="white" style="fill:white;fill-opacity:1;"/>
<path d="M303.947 158.857V154.528H305.635C306.014 154.528 306.338 154.588 306.606 154.708C306.873 154.827 307.08 155 307.224 155.227C307.368 155.454 307.44 155.724 307.44 156.037C307.44 156.35 307.368 156.62 307.224 156.847C307.08 157.07 306.873 157.243 306.606 157.367C306.338 157.486 306.014 157.546 305.635 157.546H304.287L304.565 157.255V158.857H303.947ZM304.565 157.317L304.287 157.008H305.616C306.012 157.008 306.311 156.923 306.513 156.754C306.719 156.585 306.822 156.346 306.822 156.037C306.822 155.728 306.719 155.489 306.513 155.32C306.311 155.151 306.012 155.066 305.616 155.066H304.287L304.565 154.757V157.317Z" fill="white" style="fill:white;fill-opacity:1;"/>
<path d="M311.854 158.906C311.525 158.906 311.217 158.851 310.933 158.739C310.653 158.628 310.41 158.473 310.203 158.276C309.997 158.074 309.837 157.839 309.721 157.571C309.606 157.303 309.548 157.01 309.548 156.693C309.548 156.375 309.606 156.083 309.721 155.815C309.837 155.547 309.997 155.314 310.203 155.116C310.41 154.914 310.653 154.757 310.933 154.646C311.213 154.535 311.52 154.479 311.854 154.479C312.184 154.479 312.487 154.535 312.763 154.646C313.044 154.753 313.287 154.908 313.493 155.11C313.703 155.308 313.864 155.54 313.975 155.808C314.091 156.076 314.148 156.371 314.148 156.693C314.148 157.014 314.091 157.309 313.975 157.577C313.864 157.845 313.703 158.08 313.493 158.282C313.287 158.48 313.044 158.634 312.763 158.745C312.487 158.853 312.184 158.906 311.854 158.906ZM311.854 158.356C312.093 158.356 312.314 158.315 312.516 158.232C312.722 158.15 312.899 158.034 313.048 157.886C313.2 157.733 313.318 157.556 313.4 157.354C313.487 157.152 313.53 156.932 313.53 156.693C313.53 156.454 313.487 156.233 313.4 156.031C313.318 155.829 313.2 155.654 313.048 155.505C312.899 155.353 312.722 155.235 312.516 155.153C312.314 155.071 312.093 155.029 311.854 155.029C311.611 155.029 311.387 155.071 311.18 155.153C310.978 155.235 310.801 155.353 310.649 155.505C310.496 155.654 310.377 155.829 310.29 156.031C310.208 156.233 310.166 156.454 310.166 156.693C310.166 156.932 310.208 157.152 310.29 157.354C310.377 157.556 310.496 157.733 310.649 157.886C310.801 158.034 310.978 158.15 311.18 158.232C311.387 158.315 311.611 158.356 311.854 158.356Z" fill="white" style="fill:white;fill-opacity:1;"/>
<path d="M316.694 158.857V154.528H318.555C319.025 154.528 319.394 154.623 319.662 154.813C319.93 155.002 320.064 155.279 320.064 155.641C320.064 155.996 319.936 156.268 319.68 156.458C319.425 156.643 319.089 156.736 318.672 156.736L318.784 156.55C319.266 156.55 319.635 156.647 319.891 156.841C320.15 157.031 320.28 157.309 320.28 157.676C320.28 158.047 320.144 158.337 319.872 158.548C319.604 158.754 319.204 158.857 318.672 158.857H316.694ZM317.306 158.368H318.66C318.99 158.368 319.237 158.309 319.402 158.189C319.571 158.065 319.656 157.878 319.656 157.626C319.656 157.375 319.571 157.191 319.402 157.076C319.237 156.961 318.99 156.903 318.66 156.903H317.306V158.368ZM317.306 156.433H318.512C318.813 156.433 319.041 156.373 319.198 156.254C319.359 156.134 319.439 155.959 319.439 155.728C319.439 155.493 319.359 155.316 319.198 155.196C319.041 155.077 318.813 155.017 318.512 155.017H317.306V156.433Z" fill="white" style="fill:white;fill-opacity:1;"/>
<path d="M322.253 158.857L324.213 154.528H324.825L326.792 158.857H326.142L324.393 154.875H324.64L322.89 158.857H322.253ZM323.088 157.775L323.255 157.28H325.691L325.87 157.775H323.088Z" fill="white" style="fill:white;fill-opacity:1;"/>
<path d="M331.445 158.857V157.447L331.606 157.595H330.252C329.902 157.595 329.599 157.536 329.343 157.416C329.092 157.297 328.898 157.125 328.762 156.903C328.63 156.676 328.564 156.404 328.564 156.087C328.564 155.757 328.636 155.477 328.78 155.246C328.925 155.011 329.129 154.833 329.393 154.714C329.656 154.59 329.963 154.528 330.314 154.528H332.051V158.857H331.445ZM328.564 158.857L329.634 157.323H330.264L329.219 158.857H328.564ZM331.445 157.249V154.887L331.606 155.066H330.339C329.968 155.066 329.683 155.153 329.485 155.326C329.287 155.495 329.188 155.747 329.188 156.08C329.188 156.398 329.281 156.643 329.467 156.816C329.656 156.989 329.935 157.076 330.301 157.076H331.606L331.445 157.249Z" fill="white" style="fill:white;fill-opacity:1;"/>
<path d="M284.252 169.857V165.906L284.407 166.066H282.774V165.528H286.342V166.066H284.71L284.858 165.906V169.857H284.252Z" fill="white" style="fill:white;fill-opacity:1;"/>
<path d="M288.639 169.857V165.528H290.327C290.707 165.528 291.03 165.588 291.298 165.708C291.566 165.827 291.772 166 291.917 166.227C292.061 166.454 292.133 166.724 292.133 167.037C292.133 167.35 292.061 167.62 291.917 167.847C291.772 168.07 291.566 168.243 291.298 168.367C291.03 168.486 290.707 168.546 290.327 168.546H288.979L289.258 168.255V169.857H288.639ZM289.258 168.317L288.979 168.008H290.309C290.705 168.008 291.003 167.923 291.205 167.754C291.412 167.585 291.515 167.346 291.515 167.037C291.515 166.728 291.412 166.489 291.205 166.32C291.003 166.151 290.705 166.066 290.309 166.066H288.979L289.258 165.757V168.317Z" fill="white" style="fill:white;fill-opacity:1;"/>
<path d="M293.722 169.857L295.682 165.528H296.294L298.26 169.857H297.611L295.861 165.875H296.108L294.359 169.857H293.722ZM294.556 168.775L294.723 168.28H297.16L297.339 168.775H294.556Z" fill="white" style="fill:white;fill-opacity:1;"/>
<path d="M303.657 169.857V165.528H304.276V169.857H303.657ZM300.553 169.857V165.528H301.171V169.857H300.553ZM301.11 167.928V167.39H303.713V167.928H301.11Z" fill="white" style="fill:white;fill-opacity:1;"/>
<path d="M309.107 169.906C308.777 169.906 308.472 169.853 308.191 169.745C307.915 169.634 307.674 169.48 307.468 169.282C307.266 169.08 307.107 168.845 306.992 168.577C306.876 168.309 306.819 168.014 306.819 167.693C306.819 167.371 306.876 167.076 306.992 166.808C307.107 166.54 307.268 166.308 307.474 166.11C307.68 165.908 307.921 165.753 308.198 165.646C308.478 165.535 308.783 165.479 309.113 165.479C309.447 165.479 309.754 165.537 310.034 165.652C310.319 165.763 310.56 165.93 310.758 166.153L310.356 166.543C310.191 166.369 310.005 166.242 309.799 166.159C309.593 166.073 309.372 166.029 309.138 166.029C308.894 166.029 308.668 166.071 308.457 166.153C308.251 166.235 308.072 166.351 307.919 166.499C307.767 166.648 307.647 166.825 307.561 167.031C307.478 167.233 307.437 167.454 307.437 167.693C307.437 167.932 307.478 168.154 307.561 168.36C307.647 168.562 307.767 168.738 307.919 168.886C308.072 169.034 308.251 169.15 308.457 169.232C308.668 169.315 308.894 169.356 309.138 169.356C309.372 169.356 309.593 169.315 309.799 169.232C310.005 169.146 310.191 169.014 310.356 168.837L310.758 169.226C310.56 169.449 310.319 169.618 310.034 169.733C309.754 169.849 309.445 169.906 309.107 169.906Z" fill="white" style="fill:white;fill-opacity:1;"/>
<path d="M315.053 169.566C314.525 169.566 314.074 169.494 313.698 169.35C313.323 169.201 313.037 168.987 312.839 168.707C312.641 168.426 312.542 168.086 312.542 167.686C312.542 167.287 312.641 166.946 312.839 166.666C313.037 166.386 313.323 166.172 313.698 166.023C314.074 165.875 314.525 165.801 315.053 165.801C315.061 165.801 315.075 165.801 315.096 165.801C315.121 165.801 315.143 165.801 315.164 165.801C315.189 165.801 315.203 165.801 315.207 165.801C315.735 165.801 316.184 165.875 316.555 166.023C316.93 166.172 317.217 166.386 317.415 166.666C317.612 166.946 317.711 167.287 317.711 167.686C317.711 168.082 317.612 168.422 317.415 168.707C317.221 168.987 316.939 169.201 316.568 169.35C316.201 169.494 315.755 169.566 315.232 169.566C315.224 169.566 315.205 169.566 315.176 169.566C315.152 169.566 315.127 169.566 315.102 169.566C315.077 169.566 315.061 169.566 315.053 169.566ZM315.121 169.084C315.129 169.084 315.139 169.084 315.152 169.084C315.164 169.084 315.17 169.084 315.17 169.084C315.591 169.08 315.945 169.026 316.234 168.923C316.522 168.816 316.741 168.659 316.889 168.453C317.042 168.243 317.118 167.985 317.118 167.68C317.118 167.379 317.042 167.126 316.889 166.92C316.737 166.714 316.516 166.557 316.227 166.45C315.943 166.343 315.595 166.289 315.182 166.289C315.178 166.289 315.168 166.289 315.152 166.289C315.139 166.289 315.129 166.289 315.121 166.289C314.696 166.289 314.335 166.343 314.039 166.45C313.746 166.553 313.523 166.707 313.371 166.914C313.218 167.12 313.142 167.377 313.142 167.686C313.142 167.996 313.22 168.253 313.377 168.459C313.534 168.665 313.758 168.822 314.051 168.929C314.348 169.032 314.704 169.084 315.121 169.084ZM314.842 170.018V165.368H315.417V170.018H314.842Z" fill="white" style="fill:white;fill-opacity:1;"/>
<path d="M322.156 169.906C321.826 169.906 321.519 169.851 321.235 169.739C320.954 169.628 320.711 169.473 320.505 169.276C320.299 169.074 320.138 168.839 320.023 168.571C319.907 168.303 319.85 168.01 319.85 167.693C319.85 167.375 319.907 167.083 320.023 166.815C320.138 166.547 320.299 166.314 320.505 166.116C320.711 165.914 320.954 165.757 321.235 165.646C321.515 165.535 321.822 165.479 322.156 165.479C322.486 165.479 322.789 165.535 323.065 165.646C323.345 165.753 323.588 165.908 323.794 166.11C324.005 166.308 324.165 166.54 324.277 166.808C324.392 167.076 324.45 167.371 324.45 167.693C324.45 168.014 324.392 168.309 324.277 168.577C324.165 168.845 324.005 169.08 323.794 169.282C323.588 169.48 323.345 169.634 323.065 169.745C322.789 169.853 322.486 169.906 322.156 169.906ZM322.156 169.356C322.395 169.356 322.616 169.315 322.818 169.232C323.024 169.15 323.201 169.034 323.349 168.886C323.502 168.733 323.619 168.556 323.702 168.354C323.788 168.152 323.832 167.932 323.832 167.693C323.832 167.454 323.788 167.233 323.702 167.031C323.619 166.829 323.502 166.654 323.349 166.505C323.201 166.353 323.024 166.235 322.818 166.153C322.616 166.071 322.395 166.029 322.156 166.029C321.913 166.029 321.688 166.071 321.482 166.153C321.28 166.235 321.103 166.353 320.95 166.505C320.798 166.654 320.678 166.829 320.592 167.031C320.509 167.233 320.468 167.454 320.468 167.693C320.468 167.932 320.509 168.152 320.592 168.354C320.678 168.556 320.798 168.733 320.95 168.886C321.103 169.034 321.28 169.15 321.482 169.232C321.688 169.315 321.913 169.356 322.156 169.356Z" fill="white" style="fill:white;fill-opacity:1;"/>
<path d="M326.995 169.857V165.528H328.683C329.063 165.528 329.386 165.588 329.654 165.708C329.922 165.827 330.128 166 330.272 166.227C330.417 166.454 330.489 166.724 330.489 167.037C330.489 167.35 330.417 167.62 330.272 167.847C330.128 168.07 329.922 168.243 329.654 168.367C329.386 168.486 329.063 168.546 328.683 168.546H327.335L327.614 168.255V169.857H326.995ZM327.614 168.317L327.335 168.008H328.665C329.061 168.008 329.359 167.923 329.561 167.754C329.767 167.585 329.871 167.346 329.871 167.037C329.871 166.728 329.767 166.489 329.561 166.32C329.359 166.151 329.061 166.066 328.665 166.066H327.335L327.614 165.757V168.317Z" fill="white" style="fill:white;fill-opacity:1;"/>
<path d="M332.895 169.857V165.528H333.402L335.343 168.799H335.071L336.988 165.528H337.495L337.501 169.857H336.908L336.902 166.462H337.044L335.337 169.331H335.053L333.334 166.462H333.488V169.857H332.895Z" fill="white" style="fill:white;fill-opacity:1;"/>
<path d="M339.795 169.857L341.755 165.528H342.367L344.333 169.857H343.684L341.934 165.875H342.181L340.432 169.857H339.795ZM340.629 168.775L340.796 168.28H343.233L343.412 168.775H340.629Z" fill="white" style="fill:white;fill-opacity:1;"/>
<path d="M346.626 169.857V165.528H347.238V169.319H349.65V165.528H350.262V169.857H346.626ZM350.355 170.84V169.696L350.503 169.857H349.65V169.319H350.93V170.84H350.355Z" fill="white" style="fill:white;fill-opacity:1;"/>
<path d="M353.299 169.857V165.528H353.911V168.867L356.471 165.528H357.039V169.857H356.434V166.524L353.867 169.857H353.299Z" fill="white" style="fill:white;fill-opacity:1;"/>
<path d="M362.38 169.857V168.447L362.541 168.595H361.187C360.836 168.595 360.533 168.536 360.278 168.416C360.026 168.297 359.833 168.125 359.697 167.903C359.565 167.676 359.499 167.404 359.499 167.087C359.499 166.757 359.571 166.477 359.715 166.246C359.859 166.011 360.063 165.833 360.327 165.714C360.591 165.59 360.898 165.528 361.249 165.528H362.986V169.857H362.38ZM359.499 169.857L360.568 168.323H361.199L360.154 169.857H359.499ZM362.38 168.249V165.887L362.541 166.066H361.273C360.902 166.066 360.618 166.153 360.42 166.326C360.222 166.495 360.123 166.747 360.123 167.08C360.123 167.398 360.216 167.643 360.401 167.816C360.591 167.989 360.869 168.076 361.236 168.076H362.541L362.38 168.249Z" fill="white" style="fill:white;fill-opacity:1;"/>
<path d="M282.768 180.857L284.728 176.528H285.34L287.307 180.857H286.657L284.907 176.875H285.155L283.405 180.857H282.768ZM283.603 179.775L283.77 179.28H286.206L286.385 179.775H283.603Z" fill="white" style="fill:white;fill-opacity:1;"/>
<path d="M289.599 180.857V176.528H291.461C291.931 176.528 292.3 176.623 292.567 176.813C292.835 177.002 292.969 177.279 292.969 177.641C292.969 177.996 292.842 178.268 292.586 178.458C292.33 178.643 291.994 178.736 291.578 178.736L291.689 178.55C292.172 178.55 292.541 178.647 292.796 178.841C293.056 179.031 293.186 179.309 293.186 179.676C293.186 180.047 293.05 180.337 292.778 180.548C292.51 180.754 292.11 180.857 291.578 180.857H289.599ZM290.212 180.368H291.566C291.896 180.368 292.143 180.309 292.308 180.189C292.477 180.065 292.561 179.878 292.561 179.626C292.561 179.375 292.477 179.191 292.308 179.076C292.143 178.961 291.896 178.903 291.566 178.903H290.212V180.368ZM290.212 178.433H291.417C291.718 178.433 291.947 178.373 292.104 178.254C292.264 178.134 292.345 177.959 292.345 177.728C292.345 177.493 292.264 177.316 292.104 177.196C291.947 177.077 291.718 177.017 291.417 177.017H290.212V178.433Z" fill="white" style="fill:white;fill-opacity:1;"/>
<path d="M295.765 180.857V176.528H296.377V179.867L298.937 176.528H299.506V180.857H298.9V177.524L296.334 180.857H295.765Z" fill="white" style="fill:white;fill-opacity:1;"/>
<path d="M301.801 180.857L303.761 176.528H304.373L306.34 180.857H305.69L303.941 176.875H304.188L302.438 180.857H301.801ZM302.636 179.775L302.803 179.28H305.239L305.418 179.775H302.636Z" fill="white" style="fill:white;fill-opacity:1;"/>
<path d="M310.52 180.906C310.19 180.906 309.883 180.851 309.599 180.739C309.318 180.628 309.075 180.473 308.869 180.276C308.663 180.074 308.502 179.839 308.387 179.571C308.271 179.303 308.214 179.01 308.214 178.693C308.214 178.375 308.271 178.083 308.387 177.815C308.502 177.547 308.663 177.314 308.869 177.116C309.075 176.914 309.318 176.757 309.599 176.646C309.879 176.535 310.186 176.479 310.52 176.479C310.85 176.479 311.153 176.535 311.429 176.646C311.709 176.753 311.952 176.908 312.158 177.11C312.369 177.308 312.529 177.54 312.641 177.808C312.756 178.076 312.814 178.371 312.814 178.693C312.814 179.014 312.756 179.309 312.641 179.577C312.529 179.845 312.369 180.08 312.158 180.282C311.952 180.48 311.709 180.634 311.429 180.745C311.153 180.853 310.85 180.906 310.52 180.906ZM310.52 180.356C310.759 180.356 310.98 180.315 311.182 180.232C311.388 180.15 311.565 180.034 311.713 179.886C311.866 179.733 311.983 179.556 312.066 179.354C312.152 179.152 312.196 178.932 312.196 178.693C312.196 178.454 312.152 178.233 312.066 178.031C311.983 177.829 311.866 177.654 311.713 177.505C311.565 177.353 311.388 177.235 311.182 177.153C310.98 177.071 310.759 177.029 310.52 177.029C310.277 177.029 310.052 177.071 309.846 177.153C309.644 177.235 309.467 177.353 309.314 177.505C309.162 177.654 309.042 177.829 308.956 178.031C308.873 178.233 308.832 178.454 308.832 178.693C308.832 178.932 308.873 179.152 308.956 179.354C309.042 179.556 309.162 179.733 309.314 179.886C309.467 180.034 309.644 180.15 309.846 180.232C310.052 180.315 310.277 180.356 310.52 180.356Z" fill="white" style="fill:white;fill-opacity:1;"/>
<path d="M316.183 180.857V176.906L316.338 177.066H314.705V176.528H318.273V177.066H316.641L316.789 176.906V180.857H316.183Z" fill="white" style="fill:white;fill-opacity:1;"/>
<path d="M320.57 180.857V176.528H322.258C322.638 176.528 322.961 176.588 323.229 176.708C323.497 176.827 323.703 177 323.848 177.227C323.992 177.454 324.064 177.724 324.064 178.037C324.064 178.35 323.992 178.62 323.848 178.847C323.703 179.07 323.497 179.243 323.229 179.367C322.961 179.486 322.638 179.546 322.258 179.546H320.911L321.189 179.255V180.857H320.57ZM321.189 179.317L320.911 179.008H322.24C322.636 179.008 322.935 178.923 323.137 178.754C323.343 178.585 323.446 178.346 323.446 178.037C323.446 177.728 323.343 177.489 323.137 177.32C322.935 177.151 322.636 177.066 322.24 177.066H320.911L321.189 176.757V179.317Z" fill="white" style="fill:white;fill-opacity:1;"/>
<path d="M328.478 180.906C328.148 180.906 327.841 180.851 327.557 180.739C327.276 180.628 327.033 180.473 326.827 180.276C326.621 180.074 326.46 179.839 326.345 179.571C326.229 179.303 326.172 179.01 326.172 178.693C326.172 178.375 326.229 178.083 326.345 177.815C326.46 177.547 326.621 177.314 326.827 177.116C327.033 176.914 327.276 176.757 327.557 176.646C327.837 176.535 328.144 176.479 328.478 176.479C328.808 176.479 329.111 176.535 329.387 176.646C329.667 176.753 329.911 176.908 330.117 177.11C330.327 177.308 330.488 177.54 330.599 177.808C330.714 178.076 330.772 178.371 330.772 178.693C330.772 179.014 330.714 179.309 330.599 179.577C330.488 179.845 330.327 180.08 330.117 180.282C329.911 180.48 329.667 180.634 329.387 180.745C329.111 180.853 328.808 180.906 328.478 180.906ZM328.478 180.356C328.717 180.356 328.938 180.315 329.14 180.232C329.346 180.15 329.523 180.034 329.671 179.886C329.824 179.733 329.941 179.556 330.024 179.354C330.11 179.152 330.154 178.932 330.154 178.693C330.154 178.454 330.11 178.233 330.024 178.031C329.941 177.829 329.824 177.654 329.671 177.505C329.523 177.353 329.346 177.235 329.14 177.153C328.938 177.071 328.717 177.029 328.478 177.029C328.235 177.029 328.01 177.071 327.804 177.153C327.602 177.235 327.425 177.353 327.272 177.505C327.12 177.654 327 177.829 326.914 178.031C326.831 178.233 326.79 178.454 326.79 178.693C326.79 178.932 326.831 179.152 326.914 179.354C327 179.556 327.12 179.733 327.272 179.886C327.425 180.034 327.602 180.15 327.804 180.232C328.01 180.315 328.235 180.356 328.478 180.356Z" fill="white" style="fill:white;fill-opacity:1;"/>
<path d="M335.253 180.906C334.923 180.906 334.618 180.853 334.338 180.745C334.062 180.634 333.82 180.48 333.614 180.282C333.412 180.08 333.254 179.845 333.138 179.577C333.023 179.309 332.965 179.014 332.965 178.693C332.965 178.371 333.023 178.076 333.138 177.808C333.254 177.54 333.414 177.308 333.62 177.11C333.827 176.908 334.068 176.753 334.344 176.646C334.624 176.535 334.929 176.479 335.259 176.479C335.593 176.479 335.9 176.537 336.18 176.652C336.465 176.763 336.706 176.93 336.904 177.153L336.502 177.543C336.337 177.369 336.152 177.242 335.945 177.159C335.739 177.073 335.519 177.029 335.284 177.029C335.041 177.029 334.814 177.071 334.604 177.153C334.398 177.235 334.218 177.351 334.066 177.499C333.913 177.648 333.794 177.825 333.707 178.031C333.625 178.233 333.583 178.454 333.583 178.693C333.583 178.932 333.625 179.154 333.707 179.36C333.794 179.562 333.913 179.738 334.066 179.886C334.218 180.034 334.398 180.15 334.604 180.232C334.814 180.315 335.041 180.356 335.284 180.356C335.519 180.356 335.739 180.315 335.945 180.232C336.152 180.146 336.337 180.014 336.502 179.837L336.904 180.226C336.706 180.449 336.465 180.618 336.18 180.733C335.9 180.849 335.591 180.906 335.253 180.906Z" fill="white" style="fill:white;fill-opacity:1;"/>
<path d="M338.989 180.906C338.927 180.906 338.865 180.902 338.803 180.894C338.741 180.886 338.673 180.873 338.599 180.857L338.643 180.306C338.709 180.323 338.774 180.331 338.84 180.331C339.022 180.331 339.166 180.259 339.273 180.115C339.38 179.97 339.459 179.752 339.508 179.459C339.562 179.167 339.597 178.798 339.613 178.353L339.681 176.528H342.73V180.857H342.124V176.906L342.272 177.066H340.077L340.213 176.899L340.164 178.334C340.151 178.763 340.122 179.138 340.077 179.459C340.032 179.781 339.964 180.049 339.873 180.263C339.782 180.478 339.665 180.638 339.521 180.745C339.38 180.853 339.203 180.906 338.989 180.906Z" fill="white" style="fill:white;fill-opacity:1;"/>
<path d="M345.624 180.857V176.528H346.236V179.867L348.796 176.528H349.365V180.857H348.759V177.524L346.193 180.857H345.624Z" fill="white" style="fill:white;fill-opacity:1;"/>
</g>
<defs>
<linearGradient id="paint0_linear_2319_25571" x1="477" y1="0" x2="-37.823" y2="241.305" gradientUnits="userSpaceOnUse">
<stop stop-color="#1F44D7" style="stop-color:#1F44D7;stop-color:color(display-p3 0.1216 0.2667 0.8431);stop-opacity:1;"/>
<stop offset="1" stop-color="#081143" style="stop-color:#081143;stop-color:color(display-p3 0.0314 0.0667 0.2627);stop-opacity:1;"/>
</linearGradient>
<clipPath id="clip0_2319_25571">
<rect width="477" height="322" fill="white" style="fill:white;fill-opacity:1;"/>
</clipPath>
</defs>
</svg>
